<svg width="30" xmlns="http://www.w3.org/2000/svg" height="30.001" viewBox="155 -9.5 30 30.001" fill="none"><g style="opacity: 1;"><path d="M162 4.001v-5.26a7.865 7.865 0 0 1 4.977-7.194A7.853 7.853 0 0 1 170-8.999a7.853 7.853 0 0 1 5.606 2.21A7.864 7.864 0 0 1 178-1.259v5.26m-19-3h2a.997.997 0 0 1 1 1v6a1 1 0 0 1-1 1h-2a2 2 0 0 1-2-2v-4a2.003 2.003 0 0 1 2-2Zm22 8h-2a1.002 1.002 0 0 1-1-1v-6a.997.997 0 0 1 1-1h2a2 2 0 0 1 2 2v4a2 2 0 0 1-2 2Zm-7 5.5a4 4 0 0 0 4-4v-4.5m-4 8.5a2.501 2.501 0 0 1-2.5 2.5h-3a2.501 2.501 0 0 1 0-5h3a2.5 2.5 0 0 1 2.5 2.5Z" class="fills"/><g class="strokes"><path d="M162 4.001v-5.26a7.865 7.865 0 0 1 4.977-7.194A7.853 7.853 0 0 1 170-8.999a7.853 7.853 0 0 1 5.606 2.21A7.864 7.864 0 0 1 178-1.259v5.26m-19-3h2a.997.997 0 0 1 1 1v6a1 1 0 0 1-1 1h-2a2 2 0 0 1-2-2v-4a2.003 2.003 0 0 1 2-2Zm22 8h-2a1.002 1.002 0 0 1-1-1v-6a.997.997 0 0 1 1-1h2a2 2 0 0 1 2 2v4a2 2 0 0 1-2 2Zm-7 5.5a4 4 0 0 0 4-4v-4.5m-4 8.5a2.501 2.501 0 0 1-2.5 2.5h-3a2.501 2.501 0 0 1 0-5h3a2.5 2.5 0 0 1 2.5 2.5Z" style="fill: none; stroke-width: 1.5; stroke: rgb(0, 0, 0); stroke-opacity: 1;" class="stroke-shape"/></g></g></svg>