<svg width="30" xmlns="http://www.w3.org/2000/svg" height="30" viewBox="-257 -7.5 30 30" fill="none"><g style="opacity: 1;"><path d="M-242-1.5v8l5.2 2.6m7.452-.6c-1.354 5.733-6.505 10-12.652 10-7.18 0-13-5.821-13-13 0-7.18 5.82-13 13-13a13 13 0 0 1 11.536 7m1.464-4v5h-5" class="fills"/><g class="strokes"><path d="M-242-1.5v8l5.2 2.6m7.452-.6c-1.354 5.733-6.505 10-12.652 10-7.18 0-13-5.821-13-13 0-7.18 5.82-13 13-13a13 13 0 0 1 11.536 7m1.464-4v5h-5" style="fill: none; stroke-width: 1.5; stroke: rgb(0, 0, 0); stroke-opacity: 1;" class="stroke-shape"/></g></g></svg>