<svg width="26" xmlns="http://www.w3.org/2000/svg" height="26" fill="none"><g style="opacity: 1;"><g style="opacity: 1;"><path d="M6.5 10V2a2 2 0 0 1 2-2h9a2 2 0 0 1 2 2v8a2 2 0 0 1-2 2h-9a2 2 0 0 1-2-2Z" class="fills"/><g class="strokes"><path d="M6.5 10V2a2 2 0 0 1 2-2h9a2 2 0 0 1 2 2v8a2 2 0 0 1-2 2h-9a2 2 0 0 1-2-2Z" style="fill: none; stroke-width: 1.5; stroke: rgb(0, 0, 0); stroke-opacity: 1;" class="stroke-shape"/></g></g><g style="opacity: 1;"><path d="M13 12v8Z" class="fills"/><g class="strokes"><path d="M13 12v8Z" style="fill: none; stroke-width: 1.5; stroke: rgb(0, 0, 0); stroke-opacity: 1;" class="stroke-shape"/></g></g><g style="opacity: 1;"><path d="M13 12v8" class="fills"/><g class="strokes"><path d="M13 12v8" style="fill: none; stroke-width: 1.5; stroke: rgb(0, 0, 0); stroke-opacity: 1;" class="stroke-shape"/></g></g><g style="opacity: 1;"><path d="M3 20v-2a2 2 0 0 1 2-2h16a2 2 0 0 1 2 2v2" class="fills"/><g class="strokes"><path d="M3 20v-2a2 2 0 0 1 2-2h16a2 2 0 0 1 2 2v2" style="fill: none; stroke-width: 1.5; stroke: rgb(0, 0, 0); stroke-opacity: 1;" class="stroke-shape"/></g></g><g style="opacity: 1;"><path d="M0 24v-2a2 2 0 0 1 2-2h2a2 2 0 0 1 2 2v2a2 2 0 0 1-2 2H2a2 2 0 0 1-2-2Z" class="fills"/><g class="strokes"><path d="M0 24v-2a2 2 0 0 1 2-2h2a2 2 0 0 1 2 2v2a2 2 0 0 1-2 2H2a2 2 0 0 1-2-2Z" style="fill: none; stroke-width: 1.5; stroke: rgb(0, 0, 0); stroke-opacity: 1;" class="stroke-shape"/></g></g><g style="opacity: 1;"><path d="M10 24v-2a2 2 0 0 1 2-2h2a2 2 0 0 1 2 2v2a2 2 0 0 1-2 2h-2a2 2 0 0 1-2-2Z" class="fills"/><g class="strokes"><path d="M10 24v-2a2 2 0 0 1 2-2h2a2 2 0 0 1 2 2v2a2 2 0 0 1-2 2h-2a2 2 0 0 1-2-2Z" style="fill: none; stroke-width: 1.5; stroke: rgb(0, 0, 0); stroke-opacity: 1;" class="stroke-shape"/></g></g><g style="opacity: 1;"><path d="M20 24v-2a2 2 0 0 1 2-2h2a2 2 0 0 1 2 2v2a2 2 0 0 1-2 2h-2a2 2 0 0 1-2-2Z" class="fills"/><g class="strokes"><path d="M20 24v-2a2 2 0 0 1 2-2h2a2 2 0 0 1 2 2v2a2 2 0 0 1-2 2h-2a2 2 0 0 1-2-2Z" style="fill: none; stroke-width: 1.5; stroke: rgb(0, 0, 0); stroke-opacity: 1;" class="stroke-shape"/></g></g></g></svg>