<svg width="14.663" xmlns="http://www.w3.org/2000/svg" height="14.663" viewBox="1917.922 -3342.585 14.663 14.663" fill="none"><g style="opacity: 1;"><path d="m1919.68-3342.206.087-.087a1 1 0 0 1 1.414 0l2.165 2.165a1 1 0 0 1 0 1.414l-1.53 1.529a.88.88 0 0 0-.164 1.015 10.098 10.098 0 0 0 4.518 4.518.88.88 0 0 0 1.015-.164l1.529-1.53a1 1 0 0 1 1.414 0l2.165 2.165a1 1 0 0 1 0 1.414l-.087.087a6 6 0 0 1-7.843.558l-.366-.275a22.994 22.994 0 0 1-4.6-4.6l-.275-.366a6 6 0 0 1 .558-7.843Z" style="fill: rgb(0, 0, 0); fill-opacity: 1;" class="fills"/></g></svg>