<svg width="27.872" xmlns="http://www.w3.org/2000/svg" height="30" viewBox="104.064 -7.5 27.872 30" fill="none"><g style="opacity: 1;"><path d="m114.46-4 .86-2.22a1.997 1.997 0 0 1 1.86-1.28h1.64a2.001 2.001 0 0 1 1.86 1.28l.86 2.22 2.92 1.68 2.36-.36a1.995 1.995 0 0 1 2 .98l.8 1.4a1.995 1.995 0 0 1-.16 2.26L128 3.82v3.36l1.5 1.86a2.001 2.001 0 0 1 .16 2.26l-.8 1.4a2.007 2.007 0 0 1-2 .98l-2.36-.36-2.92 1.68-.86 2.22a2 2 0 0 1-1.86 1.28h-1.68a2.002 2.002 0 0 1-1.86-1.28l-.86-2.22-2.92-1.68-2.36.36a2.007 2.007 0 0 1-2-.98l-.8-1.4a2.006 2.006 0 0 1 .16-2.26L108 7.18V3.82l-1.5-1.86a2.003 2.003 0 0 1-.16-2.26l.8-1.4a1.995 1.995 0 0 1 2-.98l2.36.36L114.46-4ZM114 5.5a4.004 4.004 0 0 0 2.469 3.695 4.001 4.001 0 0 0 5.227-5.226A3.998 3.998 0 0 0 118 1.5a3.999 3.999 0 0 0-4 4Zm.46-9.5.86-2.22a1.997 1.997 0 0 1 1.86-1.28h1.64a2.001 2.001 0 0 1 1.86 1.28l.86 2.22 2.92 1.68 2.36-.36a1.995 1.995 0 0 1 2 .98l.8 1.4a1.995 1.995 0 0 1-.16 2.26L128 3.82v3.36l1.5 1.86a2.001 2.001 0 0 1 .16 2.26l-.8 1.4a2.007 2.007 0 0 1-2 .98l-2.36-.36-2.92 1.68-.86 2.22a2 2 0 0 1-1.86 1.28h-1.68a2.002 2.002 0 0 1-1.86-1.28l-.86-2.22-2.92-1.68-2.36.36a2.007 2.007 0 0 1-2-.98l-.8-1.4a2.006 2.006 0 0 1 .16-2.26L108 7.18V3.82l-1.5-1.86a2.003 2.003 0 0 1-.16-2.26l.8-1.4a1.995 1.995 0 0 1 2-.98l2.36.36L114.46-4ZM114 5.5a4.004 4.004 0 0 0 2.469 3.695 4.001 4.001 0 0 0 5.227-5.226A3.998 3.998 0 0 0 118 1.5a3.999 3.999 0 0 0-4 4Z" class="fills"/><g class="strokes"><path d="m114.46-4 .86-2.22a1.997 1.997 0 0 1 1.86-1.28h1.64a2.001 2.001 0 0 1 1.86 1.28l.86 2.22 2.92 1.68 2.36-.36a1.995 1.995 0 0 1 2 .98l.8 1.4a1.995 1.995 0 0 1-.16 2.26L128 3.82v3.36l1.5 1.86a2.001 2.001 0 0 1 .16 2.26l-.8 1.4a2.007 2.007 0 0 1-2 .98l-2.36-.36-2.92 1.68-.86 2.22a2 2 0 0 1-1.86 1.28h-1.68a2.002 2.002 0 0 1-1.86-1.28l-.86-2.22-2.92-1.68-2.36.36a2.007 2.007 0 0 1-2-.98l-.8-1.4a2.006 2.006 0 0 1 .16-2.26L108 7.18V3.82l-1.5-1.86a2.003 2.003 0 0 1-.16-2.26l.8-1.4a1.995 1.995 0 0 1 2-.98l2.36.36L114.46-4ZM114 5.5a4.004 4.004 0 0 0 2.469 3.695 4.001 4.001 0 0 0 5.227-5.226A3.998 3.998 0 0 0 118 1.5a3.999 3.999 0 0 0-4 4Zm.46-9.5.86-2.22a1.997 1.997 0 0 1 1.86-1.28h1.64a2.001 2.001 0 0 1 1.86 1.28l.86 2.22 2.92 1.68 2.36-.36a1.995 1.995 0 0 1 2 .98l.8 1.4a1.995 1.995 0 0 1-.16 2.26L128 3.82v3.36l1.5 1.86a2.001 2.001 0 0 1 .16 2.26l-.8 1.4a2.007 2.007 0 0 1-2 .98l-2.36-.36-2.92 1.68-.86 2.22a2 2 0 0 1-1.86 1.28h-1.68a2.002 2.002 0 0 1-1.86-1.28l-.86-2.22-2.92-1.68-2.36.36a2.007 2.007 0 0 1-2-.98l-.8-1.4a2.006 2.006 0 0 1 .16-2.26L108 7.18V3.82l-1.5-1.86a2.003 2.003 0 0 1-.16-2.26l.8-1.4a1.995 1.995 0 0 1 2-.98l2.36.36L114.46-4ZM114 5.5a4.004 4.004 0 0 0 2.469 3.695 4.001 4.001 0 0 0 5.227-5.226A3.998 3.998 0 0 0 118 1.5a3.999 3.999 0 0 0-4 4Z" style="fill: none; stroke-width: 1.5; stroke: rgb(0, 0, 0); stroke-opacity: 1;" class="stroke-shape"/></g></g></svg>