<svg width="1362.097" xmlns="http://www.w3.org/2000/svg" height="897.992" viewBox="-55.529 -139.002 1362.097 897.992" fill="none"><g style="opacity: 1;"><g style="opacity: 1;"><defs><linearGradient id="a" x1=".917" y1=".165" x2=".259" y2=".691"><stop offset="0" stop-color="#122139"/><stop offset="1" stop-color="#273c5f"/></linearGradient><pattern patternUnits="userSpaceOnUse" x="1075.092" y="156.137" width="156.764" height="325.463" id="b"><rect width="156.764" height="325.463" style="fill: url(&quot;#a&quot;); fill-opacity: 1;"/></pattern></defs><path d="M1222.387 389.09c44.279-156.49-77.534-221.279-142.395-232.953 0 0 5.216 19.314 3.598 36.174-1.618 16.859-8.498 33.454-8.498 33.454 66.384 37.89 84.799 105.794 74.023 156.955l-15.55 27.966c11.158 58.006 44.543 134.895 88.822-21.596Z" fill="url(#b)" class="fills"/></g><g style="opacity: 1;"><defs><linearGradient id="c" x1=".168" y1=".539" x2=".029" y2=".132"><stop offset="0" stop-color="#1d2f4b"/><stop offset="1" stop-color="#12213a"/></linearGradient><pattern patternUnits="userSpaceOnUse" x="17.236" y="138.861" width="871.971" height="316.974" id="d"><rect width="871.971" height="316.974" style="fill: url(&quot;#c&quot;); fill-opacity: 1;"/></pattern></defs><path d="M17.236 455.835c290.95-175.71 619.901-274.212 864.146-276.479 0 0 .091-10.313 1.4-19.893 1.379-10.097 6.425-20.602 6.425-20.602C404.725 174.837 17.236 455.835 17.236 455.835Z" fill="url(#d)" class="fills"/></g><g style="opacity: 1;"><defs><radialGradient id="e" cx=".444" cy=".143" r=".793" gradientTransform="rotate(152.231 .444 .143)"><stop offset=".25" stop-color="#97c3ff"/><stop offset=".36" stop-color="#89b7f7"/><stop offset=".805" stop-color="#315585"/><stop offset="1" stop-color="#173768"/></radialGradient><pattern patternUnits="userSpaceOnUse" x="901.448" y="102.391" width="162.546" height="161.072" id="f"><rect width="162.546" height="161.072" style="fill: url(&quot;#e&quot;); fill-opacity: 1;"/></pattern></defs><ellipse cx="982.721" cy="182.927" rx="81.273" ry="80.536" transform="matrix(-.90103 .43375 .43745 .89924 1788.163 -407.822)" fill="url(#f)" class="fills"/></g></g></svg>