<svg width="742.999" xmlns="http://www.w3.org/2000/svg" height="280.718" fill="none"><defs><clipPath id="a" class="frame-clip frame-clip-def"><rect rx="0" ry="0" width="742.999" height="280.718"/></clipPath></defs><g clip-path="url(#a)"><g class="fills"><rect rx="0" ry="0" width="742.999" height="280.718" class="frame-background"/></g><g style="opacity: 1;" class="frame-children"><g style="opacity: 1;"><defs><linearGradient id="b" x1=".917" y1=".165" x2=".259" y2=".691"><stop offset="0" stop-color="#122139"/><stop offset="1" stop-color="#273c5f"/></linearGradient><pattern patternUnits="userSpaceOnUse" x="327.712" y="96.274" width="156.764" height="325.463" id="c"><rect width="156.764" height="325.463" style="fill: url(&quot;#b&quot;); fill-opacity: 1;"/></pattern></defs><path d="M475.007 329.227c44.279-156.49-77.534-221.279-142.395-232.953 0 0 5.216 19.314 3.598 36.174-1.618 16.859-8.498 33.454-8.498 33.454 66.384 37.89 84.799 105.794 74.023 156.955l-15.55 27.966c11.158 58.006 44.543 134.895 88.822-21.596Z" fill="url(#c)" class="fills"/></g><g style="opacity: 1;"><defs><linearGradient id="d" x1=".168" y1=".539" x2=".029" y2=".132"><stop offset="0" stop-color="#1d2f4b"/><stop offset="1" stop-color="#12213a"/></linearGradient><pattern patternUnits="userSpaceOnUse" x="-730.144" y="78.998" width="871.971" height="316.974" id="e"><rect width="871.971" height="316.974" style="fill: url(&quot;#d&quot;); fill-opacity: 1;"/></pattern></defs><path d="M-730.144 395.972c290.95-175.71 619.901-274.212 864.146-276.479 0 0 .091-10.313 1.4-19.893 1.379-10.097 6.425-20.602 6.425-20.602-484.482 35.976-871.971 316.974-871.971 316.974Z" fill="url(#e)" class="fills"/></g><g style="opacity: 1;"><defs><radialGradient id="f" cx=".444" cy=".143" r=".793" gradientTransform="rotate(152.231 .444 .143)"><stop offset=".25" stop-color="#97c3ff"/><stop offset=".36" stop-color="#89b7f7"/><stop offset=".805" stop-color="#315585"/><stop offset="1" stop-color="#173768"/></radialGradient><pattern patternUnits="userSpaceOnUse" x="154.068" y="42.528" width="162.546" height="161.072" id="g"><rect width="162.546" height="161.072" style="fill: url(&quot;#f&quot;); fill-opacity: 1;"/></pattern></defs><ellipse cx="235.341" cy="123.064" rx="81.273" ry="80.536" transform="matrix(-.90103 .43375 .43745 .89924 393.556 -89.679)" fill="url(#g)" class="fills"/></g></g></g></svg>