<svg width="30" xmlns="http://www.w3.org/2000/svg" height="30" fill="none"><defs><clipPath id="a" class="frame-clip frame-clip-def"><rect rx="0" ry="0" width="30" height="30"/></clipPath></defs><g clip-path="url(#a)"><g class="fills"><rect width="30" height="30" class="frame-background" style="fill: rgb(255, 255, 255); fill-opacity: 0;" ry="0" rx="0" fill="none"/></g><g style="opacity: 1;" class="frame-children"><path d="M29.796.019a11.637 11.637 0 0 0-.009-.264 14.633 14.633 0 0 0-.051-.893.66.66 0 0 0-.602-.602 15.311 15.311 0 0 0-.896-.051L27.98-1.8a20.612 20.612 0 0 0-.43-.004h-.071c-2.842.014-5.45.712-8.083 2.149l-.139.076-.049.026-.01.007c-2.159 1.203-4.314 2.902-6.545 5.132-.253.254-.501.511-.747.769l-4.335.329a.664.664 0 0 0-.349.133L.423 11.991a.66.66 0 0 0 .34 1.18l6.379.576 2.02 2.02c-.716.164-1.445.565-2.07 1.189a4.567 4.567 0 0 0-.894 1.253c-.288.608-.919 2.176-1.587 3.836l-.327.81a.658.658 0 0 0 .858.857l.839-.338c1.646-.664 3.201-1.29 3.811-1.578a4.528 4.528 0 0 0 1.248-.893c.625-.624 1.026-1.353 1.189-2.069l1.96 1.96.576 6.379a.66.66 0 0 0 1.18.339l5.174-6.798a.651.651 0 0 0 .132-.349l.32-4.207c.282-.267.562-.538.839-.815 2.232-2.232 3.931-4.389 5.135-6.549l.004-.006.017-.032c.055-.099.108-.198.16-.297 1.386-2.584 2.059-5.149 2.073-7.936L29.8.441c0-.14-.001-.281-.004-.422Zm-8.42 10.492a2.734 2.734 0 0 1-1.945.806 2.734 2.734 0 0 1-1.946-.806 2.755 2.755 0 0 1 0-3.89 2.755 2.755 0 0 1 3.891 0c.519.519.806 1.21.806 1.945a2.73 2.73 0 0 1-.806 1.945ZM29.796.019a11.637 11.637 0 0 0-.009-.264 20.372 20.372 0 0 0-.051-.893.66.66 0 0 0-.602-.602 15.311 15.311 0 0 0-.896-.051L27.98-1.8a20.612 20.612 0 0 0-.43-.004h-.071c-2.842.014-5.45.712-8.083 2.149l-.139.076-.049.026-.01.007c-2.159 1.203-4.314 2.902-6.545 5.132a44.94 44.94 0 0 0-.747.769l-4.335.329a.664.664 0 0 0-.349.133L.423 11.991a.66.66 0 0 0 .34 1.18l6.379.576 2.02 2.02c-.716.164-1.445.565-2.07 1.189a4.577 4.577 0 0 0-.894 1.252c-.288.609-.919 2.177-1.587 3.837l-.327.81a.658.658 0 0 0 .858.857l.839-.339c1.646-.663 3.201-1.289 3.811-1.577a4.528 4.528 0 0 0 1.248-.893c.625-.624 1.026-1.353 1.189-2.069l1.96 1.96.576 6.379a.66.66 0 0 0 .656.599.656.656 0 0 0 .524-.26l5.174-6.798a.654.654 0 0 0 .132-.349l.32-4.207c.282-.267.562-.538.839-.815 2.232-2.232 3.931-4.389 5.135-6.549l.004-.006.017-.032c.055-.099.108-.198.16-.297 1.386-2.584 2.059-5.149 2.073-7.936L29.8.441c0-.14-.001-.281-.004-.422Zm-8.42 10.492c-.52.519-1.21.806-1.945.806a2.734 2.734 0 0 1-1.946-.806 2.755 2.755 0 0 1 0-3.89 2.755 2.755 0 0 1 3.891 0c.519.519.806 1.21.806 1.945a2.73 2.73 0 0 1-.806 1.945Z" style="fill: rgb(0, 0, 0); fill-opacity: 1;" class="fills"/></g></g></svg>